<?xml version="1.0" encoding="UTF-8"?>
<svg xmlns="http://www.w3.org/2000/svg" viewBox="0 0 1408.546 517.72412">
  <path d="M 336.48438,37.208984 C 281.76376,37.106072 227.46183,37.644719 172.13477,39.261719 150.21557,39.899319 119.68678,49.3606 100.26758,59.25 76.617678,71.2939 56.634016,84.720969 38.697266,103.79297 c -13.56749,14.4262 -23.407271,34.82414 -28.712891,53.83594 -4.26529,15.284 -5.0981225,33.10783 -2.5390625,49.05273 2.6251895,16.3569 8.8851135,28.35077 17.2460935,42.35547 7.59054,12.7141 19.008661,26.07851 32.300782,32.72461 28.18185,14.0909 60.523432,23.32018 89.582032,36.67578 37.2176,17.1055 46.83316,37.67363 46.38086,77.26953 -0.2743,24.0146 5.34902,49.52622 51.51562,50.66992 231.1479,5.7262 460.05682,0.26394 691.35352,0.77344 130.80268,0.2881 239.60708,0.86724 367.87498,0.77344 34.3163,-0.026 59.9073,-21.68378 72.2422,-36.10938 11.1936,-13.0908 19.4803,-34.96005 20.3379,-52.78515 1.2581,-26.1511 2.2487,-51.21086 3.1641,-75.53516 l -0.01,-0.0156 c 0.942,-25.05078 1.8399,-50.03608 2.9687,-76.79688 0.7083,-16.7887 -1.1655,-36.01175 -8.1699,-50.24805 -6.2495,-12.702 -20.0727,-31.08722 -37.6679,-38.07812 -8.8958,-3.53449 -17.4607,-6.83299 -25.8262,-9.97461 v -0.01 c -39.6019,-15.526596 -74.7249,-26.212259 -117.3574,-41.664059 -10.2079,-3.6998 -22.1342,-6.784509 -32.3028,-4.787109 -12.1635,2.3893 -26.5016,10.352672 -34.2715,19.638672 -8.5804,10.2546 -15.0022,24.675446 -17.3164,38.560546 -1.6737,10.0422 2.4193,23.3179 7.045,31.5293 10.6807,18.9601 29.1488,26.55671 48.1328,32.30078 20.671,6.2545 31.431,11.02295 46.8454,24.12355 13.1406,11.16815 33.1504,37.07644 37.4004,59.52445 7.2467,35.21435 -3.254,56.87847 -23.0241,61.5211 -8.9063,2.09146 -17.9071,3.30913 -31.1202,-3.7316 -137.8729,-80.08 -262.79468,-157.21454 -400.97458,-241.931642 -18.2817,-11.2084 -38.73496,-21.126534 -59.81836,-23.927734 -13.0682,-1.7363 -29.46494,-1.170544 -41.24414,1.910156 -14.142,3.6987 -31.14164,12.986937 -40.74804,24.773438 -46.6227,57.203802 -70.64247,100.273532 -112.28907,161.894532 -9.3222,13.7932 -14.74955,31.46397 -12.68945,47.10547 5.2216,39.6454 -11.30697,67.85942 -37.88477,69.39062 -43.8466,2.5262 -72.72399,-1.11768 -113.27929,-2.33398 -26.9443,-0.8081 -52.89387,-11.40678 -76.91797,-24.20508 -46.7414,-24.9004 -88.45117,-49.33842 -131.95117,-78.04102 -11.4789,-7.5741 -21.50618,-19.75977 -24.20508,-31.45507 -2.0865,-9.0417 2.98571,-24.52967 9.84961,-31.60157 6.2961,-6.4869 16.46824,-9.73874 26.24804,-9.49804 69.9924,1.7221 131.06545,0.86178 202.87305,-2.32032 14.9265,-0.6615 35.98299,-11.87852 47.02149,-21.60742 12.49,-11.0081 22.57112,-21.58347 29.48632,-36.79687 5.0484,-11.1066 8.8824,-25.25279 7.25,-37.087893 -1.5579,-11.2946 -9.46683,-27.211444 -16.39843,-34.839844 -8.2179,-9.044 -20.43522,-16.654412 -33.35352,-16.820312 -33.44512,-0.42945 -66.4274,-0.723409 -99.25976,-0.785157 z" fill="none" stroke="#E63B19" stroke-width="8" stroke-linecap="round" stroke-linejoin="round"/>
</svg>
