<?xml version="1.0" encoding="UTF-8"?>
<svg xmlns="http://www.w3.org/2000/svg" viewBox="0 0 1337.8236 927.53363">
  <path d="M 401.7257 683.6157 C 298.4225 727.8223 196.0303 771.21 96.0548 810.4303 71.9569 819.8839 49.6805 816.6112 33.2456 804.4485 23.8513 797.4962 9.5067 780.9861 8.7202 761.9776 7.0577 721.7958 15.136 685.2976 21.8802 645.3321 25.9033 621.4915 33.9271 597.5164 44.6111 575.943 54.6641 555.6437 67.9461 535.496 84.0911 519.7139 103.4383 500.8015 126.8375 484.1627 151.0875 471.8593 181.0726 456.6463 215.9245 450.9385 246.7966 437.1648 267.7669 427.8088 289.1888 416.1976 304.8203 400.0775 327.4724 376.7176 341.7588 345.498 361.6475 318.7248 383.2327 289.6678 403.1617 262.8126 429.2421 239.7648 437.4575 232.5047 447.9959 226.151 470.5166 230.1939 526.4739 240.2393 576.6679 254.8736 633.222 264.8884 653.2351 268.4324 675.4027 268.4826 694.2366 262.4957 735.6196 249.3408 779.2659 231.0852 818.6584 209.8557 845.8634 195.1943 869.7986 179.1187 894.0293 160.8048 904.0944 153.1975 910.3345 140.7889 916.7602 129.6993 935.0593 98.1186 945.5152 65.8731 967.0075 37.5793 977.0194 24.3991 996.4793 12.4167 1011.8711 9.4648 1025.5908 6.8336 1041.7596 9.7666 1055.5384 16.0448 1140.659 54.8296 1221.0064 93.3358 1303.1856 137.4757 1312.3288 142.3867 1325.2938 158.497 1327.113 167.983 1330.8768 187.6085 1329.6746 207.1222 1324.7202 227.8012 1320.5024 245.4058 1314.6497 265.5159 1301.9893 278.0484 1275.1697 304.5971 1240.6313 326.7882 1206.2802 345.0448 1053.1364 426.4364 896.2526 506.4461 751.0638 589.103 732.3653 599.7482 736.9139 608.2023 745.0821 621.4049 755.8763 638.8522 754.8939 643.419 733.7166 656.6975 610.1016 734.2061 482.226 824.4407 388.5657 912.7194 366.45 933.5644 338.1921 897.6161 356.2638 879.8194 408.6889 828.1922 454.0027 789.9509 517.1748 738.0502 550.1106 710.9909 596.6876 675.6575 625.4457 657.2958 650.8794 641.0567 634.4293 586.877 590.7511 604.6557 531.2676 628.8679 467.5893 655.4307 401.7257 683.6157 z" fill="none" stroke="#E63B19" stroke-width="8" stroke-linecap="round" stroke-linejoin="round"/>
</svg>
