<?xml version="1.0" encoding="UTF-8"?>
<svg xmlns="http://www.w3.org/2000/svg" viewBox="0 -30 1338 727">
  <path d="m 501.6875,603.96875 c 12.72464,0.43615 103.21154,22.57429 155.65625,32.375 18.45179,3.44821 61.47735,5.9663 81.28125,4 73.8993,-7.3375 105.14235,-10.18005 142.34375,-14.9375 9.00379,-1.15144 71.6172,-14.56806 75.9375,-18.6875 5.40457,-5.1533 9.9715,-12.59923 9.75,-21.65625 -0.20224,-8.26963 5.3103,-21.1408 16.9375,-28.71875 17.04045,-11.10603 48.49155,-24.12453 65.56245,-34.90625 8.1823,-5.16777 11.9651,-13.39796 15.9376,-22.4375 38.2272,-86.98967 78.0861,-174.69641 104.4595,-263.88848 2.5351,-8.57343 -2.2854,-22.22529 -5.0901,-30.79534 -5.9263,-18.10804 -7.5916,-32.83097 2.5962,-41.65136 41.7341,-34.64165 81.6832,-70.896309 125.0582,-105.363359 6.4408,-5.11808 9.3686,-18.200194 9.9437,-25.86948 0.4216,-5.621954 -4.537,-11.64517 -10.2543,-17.248161 -3.1267,-3.064154 -16.225,-1.629782 -20.7544,-1.050252 -77.8589,9.9621 -136.5316,17.410476 -215.022,25.431376 -12.5546,1.28296 -49.1092,-1.16089 -61.59431,-3.02941 -36.3602,-5.44166 -56.27215,-11.856847 -92.39279,-16.75552 -13.12808,-1.780426 -26.9392,-1.097236 -33.44179,5.675857 -2.29925,2.394903 -10.87685,11.928472 -14.74652,20.546245 -4.87754,10.862313 -14.59347,28.380457 -22.14748,49.699471 -5.6982,16.081543 -7.5798,39.966183 -5.82843,57.408693 2.85465,28.43037 28.14499,124.63773 26.13849,138.97671 -2.0987,14.99705 -26.72192,46.21112 -37.93566,61.67342 -3.0281,4.59943 -15.52708,4.41137 -23.79718,0.95466 -8.2702,-3.4567 -17.48894,-8.69865 -25.67402,-9.05822 -87.39527,-3.83926 -203.67755,0.9666 -308.07966,-1.90685 -4.25378,-0.11708 -6.92213,-2.6324 -7.75,-8.71875 -1.37088,-10.07847 -6.98104,-12.02613 -11.46875,-10.21875 -34.49516,13.89257 -77.62944,30.70283 -112.875,46.375 -30.15401,13.40818 -51.1179,28.31088 -74.78125,48.59375 -41.46372,35.54033 -95.85902,93.41723 -123.375,117.875 C 106.10656,554.58866 54.939475,572.78347 19.125,588.75 8.97781,593.27374 1.30872,601.13606 4.9375,611.4375 c 7.591643,21.55128 16.88379,43.73885 28.375,61.78125 3.63589,5.7088 18.96029,9.4227 25.9375,7.25 66.98134,-20.8583 128.07958,-50.96955 195.27909,-72.51652 9.26597,-2.97106 25.40108,-5.21212 36.70584,-5.2247 78.22349,0.72847 131.24073,0.23026 210.45257,1.24122 z" fill="none" stroke="#E63B19" stroke-width="8" stroke-linecap="round" stroke-linejoin="round"/>
</svg>
