<?xml version="1.0" encoding="UTF-8"?>
<svg xmlns="http://www.w3.org/2000/svg" viewBox="0 0 1466.6552 749.26263">

  <path d="m 1542.8438,997.31011 c -120.0271,3.46239 -239.4632,4.38879 -358.7611,5.94609 -24.6642,0.3249 0.4836,-34.06706 -25.9987,-23.48239 -36.4229,14.55784 -71.5495,27.24769 -111.0721,27.54539 -37.0837,0.2793 -89.6343,0.759 -113.85858,-7.2768 -26.25187,-8.70837 -53.20762,-29.18482 -63.06411,-37.21535 -17.95703,-14.63042 -35.27397,-37.10327 -48.0975,-68.1798 -14.81075,-35.89238 -26.79844,-95.40814 -35.59139,-148.16584 -4.77525,-28.65153 -17.44947,-96.77342 -20.72927,-122.5401 -3.03479,-23.84181 -23.46507,-8.92161 -29.44922,-25.47372 -24.88359,-68.82774 -56.78783,-121.22944 -59.16981,-130.66226 -12.15491,-24.93019 -15.52544,-40.92394 -10.96141,-58.60954 2.51504,-9.74577 21.18423,-25.87355 31.81055,-27.91463 48.28485,-9.27448 91.72764,-18.7665 141.59781,-26.89069 7.19282,-1.17176 15.50201,6.81723 19.58217,12.14608 24.39633,31.86252 92.0318,136.0776 132.33205,181.51184 39.73831,44.80068 82.03981,79.49356 131.36311,125.0689 47.7189,44.09281 97.8784,91.32569 145.3773,132.39443 12.4388,10.75498 34.3843,-3.19489 57.2519,-1.37654 5.1681,0.41095 21.2887,4.73224 31.4024,13.83275 5.0569,4.55026 10.6975,12.77785 19.1747,15.86355 8.4772,3.08569 35.7603,3.85639 39.4783,3.83414 180.1175,-1.07777 342.8969,-0.94843 523.5153,0.24735 36.6721,-0.0652 53.0009,16.91573 55.0895,50.13608 -0.2883,11.96939 -1.5155,25.14753 -11.1287,37.75185 -12.7528,16.72064 -34.6613,34.72018 -53.541,42.63071 -34.3252,14.38214 -69.4635,15.39125 -104.5094,19.43327 -90.3111,10.41603 -189.4012,6.7728 -282.0428,9.44523 z" fill="none" stroke="#E63B19" stroke-width="18" stroke-linecap="round" stroke-linejoin="round"/>
</svg>