<?xml version="1.0" encoding="UTF-8"?>
<svg xmlns="http://www.w3.org/2000/svg" viewBox="0 0 1432.0631 930.00427">
  <g transform="translate(-253.95763,-478.25402)">
    <path d="M 1346.5073,1065.2231 C 1290.6754,1087.9581 1239.3555,1112.8319 1187.9891,1140.8931 C 1176.8735,1146.9655 1166.4211,1155.4299 1154.4909,1158.8385 C 1141.2974,1162.6081 1126.2598,1163.7694 1112.6182,1162.4276 C 1101.9337,1161.3767 1089.1513,1156.2863 1082.41,1148.0713 C 1066.0166,1128.0941 1056.0061,1116.4686 1041.1355,1099.0204 C 1026.0971,1081.3753 1006.9057,1063.9561 991.78545,1046.3804 C 960.24752,1009.7209 929.17861,973.53834 900.86182,934.81946 C 890.0974,920.10075 881.70316,902.99445 874.54182,886.06764 C 864.15649,861.52051 856.09833,833.98021 841.94091,812.49127 C 833.76621,800.08324 820.4327,792.74453 806.64818,787.06855 C 793.31512,781.57847 776.55541,780.86559 762.68182,783.47946 C 749.03905,786.04984 732.74528,792.14002 721.70636,801.72401 C 608.75527,899.78809 510.35303,989.89898 394.50091,1084.9631 C 381.38327,1095.7269 365.95863,1118.142 359.80637,1133.7149 C 353.19742,1150.4438 350.43773,1169.6553 351.13272,1187.5513 C 352.03288,1210.7305 356.5383,1235.1309 365.19,1256.9404 C 375.68012,1283.3842 387.82355,1303.9327 398.38909,1330.2177 C 404.17385,1344.6091 410.39503,1364.5265 406.46454,1377.474 C 403.61563,1386.8586 393.03358,1394.8147 382.83637,1397.214 C 372.6954,1399.6001 360.84576,1396.6993 352.62819,1390.634 C 344.09666,1384.3369 338.77345,1371.218 336.17818,1359.8277 C 324.41708,1308.2096 310.24392,1256.8134 307.46545,1204.3004 C 306.25604,1181.4425 316.52451,1157.5028 324.81273,1136.1076 C 333.67239,1113.2373 348.26543,1094.9538 356.51636,1072.4013 C 360.22906,1062.2532 355.36606,1046.2996 358.01182,1036.5103 C 359.35394,1031.5445 367.94664,1028.2529 372.96637,1025.743 C 385.4933,1019.4795 400.35879,1017.0854 411.54909,1008.994 C 426.28,998.34238 434.22616,982.87791 446.54272,968.91582 C 532.72677,871.21731 617.72306,777.07503 702.56455,681.19036 C 709.66639,673.16413 719.69868,676.34139 726.19273,678.19945 C 736.82669,681.24202 747.78016,682.24594 756.40091,678.79764 C 763.73167,675.86534 770.13736,666.35948 774.04727,657.56218 C 784.49372,634.05766 790.75281,605.89067 804.25545,585.78036 C 809.49584,577.97552 820.5518,574.11423 830.27636,573.21855 C 850.85968,571.32272 873.02544,576.24135 893.98273,578.90127 C 947.60048,585.70651 993.69804,596.16849 1038.1446,604.324 C 1065.1275,609.2751 1108.5878,606.67008 1136.2464,602.52946 C 1183.0556,595.52188 1227.764,592.0084 1274.4264,580.99491 C 1291.9688,576.85446 1312.9989,564.18053 1328.8609,555.27309 C 1351.707,542.44371 1372.9743,532.57368 1397.9509,525.06491 C 1415.6988,519.72931 1441.8817,522.10502 1458.3672,530.74764 C 1474.3207,539.1113 1492.6462,550.07363 1502.3337,565.14309 C 1521.3589,594.73787 1527.5326,629.69712 1541.2154,663.544 C 1557.8405,704.66924 1577.7209,745.15397 1595.9491,785.57309 C 1623.5815,846.84488 1649.4929,896.04162 1675.8063,956.95218 C 1681.3649,969.81924 1677.6454,986.89689 1671.32,994.33855 C 1664.0866,1002.8484 1653.6367,1010.0247 1642.0091,1011.6858 C 1597.8064,1018.0005 1552.2902,1022.9343 1506.5209,1018.5649 C 1495.804,1017.5418 1484.2501,1018.5383 1473.92,1021.2567 C 1431.2113,1032.4959 1387.6435,1048.4724 1346.5073,1065.2231 z" fill="none" stroke="#E63B19" stroke-width="8" stroke-linecap="round" stroke-linejoin="round"/>
  </g>
</svg>
