<?xml version="1.0" encoding="UTF-8"?>
<svg xmlns="http://www.w3.org/2000/svg" viewBox="0 0 682.76655 552.00732">
  <g transform="translate(227.14872,129.66905)">
    <path d="m 222.1544,402.73183 8.96503,-0.0977 -0.19832,-6.83008 -9.28513,-0.0169 -22.76866,0.11847 -36.17892,-0.0419 -54.03685,-10e-4 -62.986351,0.0965 -42.5770966,0.40397 -17.3990584,0.18112 c 0,0 -2.069811,-0.0761 -3.077022,-0.29291 -0.663913,-0.14314 -1.334549,-0.32872 -1.927952,-0.65903 -0.496696,-0.2766 -0.943767,-0.65415 -1.318998,-1.08123 -0.544873,-0.62016 -1.010576,-1.33231 -1.310449,-2.10146 -0.533319,-1.36787 -0.814234,-4.32857 -0.814234,-4.32857 l -1.699849,-9.29327 -1.824844,-7.42612 -2.477748,-7.34928 -2.530584,-6.41374 -5.691599,-15.00854 -2.532781,-6.00675 4e-6,-4.2e-4 -2.70571,-6.29957 -5.878878,-16.11213 -7.539694,-20.41002 -10.503917,-27.27507 -6.349845,-19.39237 -7.283313,-23.78895 -5.350662,-21.17141 -5.800565,-25.84828 -3.331368,-19.75774 -4.737254,-30.06408 -4.215232,-26.536552 -3.22782,-16.633656 -4.82258,-19.862388 -4.77614,-14.767048 -4.92787,-12.879385 -5.53857,-12.34079 c 0,0 -3.6779,-8.677571 -5.80436,-12.878892 -2.51759,-4.9740843 -8.2182,-14.5663755 -8.2182,-14.5663755 l -7.44266,-12.2111185 -13.16757,-23.192904 -11.62388,-20.211447 -12.73011,-21.323751 -3.43281,-5.762689 c 0,0 -0.64559,-1.316525 -0.71578,-2.030849 -0.063,-0.64121 -0.007,-1.334233 0.27537,-1.913181 0.26432,-0.541226 0.76678,-0.94614 1.25221,-1.302721 0.67705,-0.49734 1.4361,-0.940624 2.25611,-1.123239 1.29435,-0.288257 2.65388,0.0071 3.97707,0.0942 1.79543,0.118204 5.36664,0.580789 5.36664,0.580789 l 18.66043,2.734536 18.2968,2.968013 19.41882,4.340689 20.797822,5.368628 28.947293,9.520044 24.498712,10.402011 18.979097,9.098603 22.997194,11.07662 25.960518,12.360856 37.60352,18.5985941 26.760381,12.6433345 21.702703,8.4621964 32.68822,11.969471 44.41463,13.570582 31.66109,9.242316 c 0,0 3.17559,1.017582 4.53466,1.94355 1.02044,0.695234 1.87725,1.636334 2.60398,2.63457 0.83725,1.149979 1.44544,2.46363 1.96688,3.787057 0.48111,1.220996 0.85907,2.495265 1.0565,3.792703 0.18179,1.194637 0.2557,2.423911 0.10985,3.623482 -0.13317,1.096593 -0.42551,2.190057 -0.89058,3.19199 -0.57597,1.240697 -2.30756,3.393385 -2.30756,3.393385 l -10.63512,9.462192 -11.40429,8.82589 -11.80566,6.382048 -13.07562,5.226186 -12.82928,3.42212 -12.7827,2.14921 -8.86669,0.38674 -10.43096,-0.32158 -7.32893,-0.78157 -9.83174,-1.91492 -13.2881,-4.29521 L 84.53698,93.444629 56.387469,81.10533 39.766078,73.527759 21.267549,65.100173 16.858533,63.22593 c 0,0 -2.888297,-1.260664 -4.398008,-1.696049 -1.631111,-0.470379 -3.3167571,-0.742266 -4.9977072,-0.97924 -1.835247,-0.258668 -3.6866809,-0.428939 -5.5393434,-0.480673 -2.69031437,-0.0751 -5.4035688,-0.115427 -8.0702654,0.24809 -3.1878437,0.434548 -6.342965,1.219807 -9.374807,2.296433 -2.416157,0.857986 -4.689108,2.086172 -6.952046,3.291605 -2.067327,1.101254 -4.169905,2.181249 -6.039009,3.592973 -1.942135,1.466904 -3.641048,3.240508 -5.3072,5.01467 -1.959866,2.086863 -3.875588,4.239855 -5.495459,6.60043 -1.472151,2.145286 -2.664395,4.477047 -3.800508,6.81773 -1.036717,2.135873 -2.06458,4.298059 -2.7423,6.573475 -0.91596,3.075293 -1.55909,6.261736 -1.758733,9.464326 -0.149227,2.3938 0.425823,7.18275 0.425823,7.18275 l 2.243299,11.98981 3.97973,14.90566 6.742162,25.16403 7.902336,31.78263 2.860078,9.23266 c 0,0 1.438371,3.22432 2.366605,4.71948 1.046499,1.68565 2.318886,3.22394 3.585002,4.75155 1.772254,2.13824 3.56937,4.27514 5.604294,6.16519 1.859581,1.72713 3.847582,3.34135 5.99627,4.69201 3.3154758,2.08411 6.82398166,3.94941 10.535465,5.19869 2.842842,0.95692 5.854922,1.36762 8.835097,1.70817 2.531147,0.28926 5.094003,0.41985 7.637756,0.27954 3.703658,-0.20447 7.417797,-0.69629 11.008158,-1.62811 2.598364,-0.67432 5.136685,-1.63707 7.534216,-2.84457 2.796157,-1.40831 5.35988,-3.25036 7.896667,-5.08516 3.285025,-2.37599 6.259545,-5.15558 9.455523,-7.65007 1.754051,-1.36907 3.485667,-2.77446 5.333207,-4.01446 1.900702,-1.27568 3.895014,-2.40988 5.900841,-3.51292 2.055647,-1.13043 4.143493,-2.20792 6.279266,-3.1785 3.279452,-1.49033 6.622655,-2.84919 10.017597,-4.05343 2.884169,-1.02305 5.808751,-1.94862 8.778115,-2.6889 2.67887,-0.66782 5.406394,-1.13197 8.131406,-1.57558 2.53202,-0.41218 5.07319,-0.79614 7.62977,-1.008 2.78279,-0.23054 5.57986,-0.30348 8.37211,-0.28462 2.67618,0.0181 5.35801,0.10225 8.01967,0.38112 3.79946,0.39818 11.3119,1.84137 11.3119,1.84137 l 20.15854,4.60422 27.20454,6.88802 45.75923,11.59135 44.79518,11.04266 94.28963,22.86839 10.09497,2.44577 c 0,0 2.42725,0.99544 3.62039,1.53961 1.38751,0.63278 2.79994,1.22812 4.11212,2.00511 1.75869,1.04135 3.46888,2.19352 5.00616,3.5404 1.39725,1.22419 2.66043,2.61137 3.78813,4.08762 1.25165,1.63849 2.2826,3.44042 3.27154,5.24961 0.76988,1.40848 1.43156,2.87534 2.06491,4.35023 0.54509,1.26945 1.13368,2.5326 1.49112,3.86704 0.63985,2.38853 1.14845,7.32877 1.14845,7.32877 l 0.007,7.89259 0.46469,40.64019 1.09878,20.68275 0.51277,13.22367 c 0,0 0.0517,2.79044 -0.22687,4.14626 -0.20915,1.01813 -0.56143,2.0226 -1.07127,2.92835 -0.50427,0.89592 -1.11562,1.77644 -1.92632,2.40871 -1.84504,1.43897 -6.38487,2.9167 -6.38487,2.9167 l -18.53786,5.99293 -25.62006,4.28388 -21.72592,2.16494 -21.55975,0.22279 -77.68223,0.45204 0.19996,6.82927 41.2003,-0.16731 48.93642,-0.39341 24.91363,-0.48718 19.23992,-3.14198 20.01786,-5.14343 9.79452,-3.61031 7.10133,-3.01821 c 0,0 3.09082,-1.36445 4.46418,-2.32939 0.8433,-0.59248 1.62049,-1.2977 2.27486,-2.09394 0.64573,-0.78572 1.16522,-1.67966 1.59229,-2.60274 0.5763,-1.24553 1.03586,-2.56177 1.28605,-3.91117 0.27518,-1.4837 0.22163,-4.52157 0.22163,-4.52157 l -0.95042,-13.2067 -0.63274,-24.57598 -0.50374,-32.23413 -0.10326,-11.13236 c 0,0 -0.26594,-5.28933 -0.73522,-7.8881 -0.39011,-2.16042 -0.9988,-4.2841 -1.72087,-6.35735 -0.65461,-1.87955 -1.44434,-3.71733 -2.35765,-5.48571 -1.08843,-2.10743 -2.32117,-4.14868 -3.70453,-6.07545 -1.20886,-1.68373 -2.51271,-3.31635 -3.99548,-4.76472 -2.05292,-2.00525 -4.29127,-3.85448 -6.72487,-5.37531 -1.47821,-0.92377 -3.1037,-1.60031 -4.72497,-2.24047 -2.46375,-0.97276 -7.56937,-2.41891 -7.56937,-2.41891 l -30.00249,-7.23114 -42.82511,-10.12246 -30.30526,-7.83225 -34.94303,-8.66142 -53.70023,-13.59445 -37.65065,-8.91916 -13.2691,-2.95222 c 0,0 -7.36137,-1.29132 -11.07932,-1.61772 -3.58349,-0.31461 -7.19228,-0.46203 -10.78698,-0.32529 -5.56321,0.21155 -11.13428,0.75186 -16.607663,1.7697 -5.514048,1.0254 -10.95313,2.51715 -16.253431,4.35102 -3.825106,1.3234 -7.550839,2.95245 -11.162221,4.78021 -4.972245,2.51655 -9.828189,5.30618 -14.404145,8.48685 -2.420484,1.68248 -4.582084,3.70978 -6.862904,5.57718 -2.180196,1.78503 -4.22714,3.74256 -6.520977,5.37899 -1.615567,1.15252 -3.287386,2.25187 -5.076864,3.1099 -2.570205,1.23242 -5.274592,2.23273 -8.048446,2.8889 -2.333066,0.55189 -4.747099,0.72454 -7.140688,0.86058 -2.751518,0.1565 -5.530138,0.26493 -8.26773,-0.0527 -2.219524,-0.25758 -4.4008903,-0.83077 -6.5347891,-1.49341 -2.1473511,-0.66685 -4.2614465,-1.47685 -6.27056582,-2.48643 -1.99232068,-1.00112 -3.92276038,-2.15745 -5.68939348,-3.51781 -2.1392797,-1.6473 -4.1237487,-3.52051 -5.8789166,-5.57219 -1.744151,-2.03887 -3.196525,-4.32163 -4.565789,-6.62901 -1.114526,-1.87809 -2.955529,-5.84723 -2.955529,-5.84723 l -2.554531,-9.96268 -5.738286,-22.33935 -7.092227,-26.83467 -5.543583,-20.81961 -1.904228,-9.13604 c 0,0 -0.199663,-3.67712 -0.127764,-5.51432 0.07826,-1.99973 0.23277,-4.00713 0.607731,-5.972917 0.318458,-1.669585 0.798479,-3.312265 1.387355,-4.906661 0.986779,-2.671688 3.577782,-7.759196 3.577782,-7.759196 0,0 2.195732,-3.589695 3.482411,-5.248954 1.115662,-1.438714 2.33089,-2.809304 3.656188,-4.057572 1.515257,-1.427188 3.144015,-2.747974 4.880836,-3.895315 2.23187,-1.474339 4.585381,-2.802239 7.065243,-3.804849 2.469612,-0.998486 5.079392,-1.647936 7.6924188,-2.16565 2.5989327,-0.514926 5.2470224,-0.816931 7.8942283,-0.925943 2.471456,-0.101789 4.9624906,-0.05658 7.416254,0.255609 1.8965924,0.241361 5.5990409,1.244444 5.5990409,1.244444 l 11.471705,4.688246 14.329185,6.552856 25.307169,11.559634 28.146446,12.724078 10.598158,4.12869 7.86048,2.58228 11.5369,2.90623 12.87272,1.42119 13.33802,0.44071 13.5203,-1.47381 10.12878,-2.25355 17.7182,-6.49151 8.53906,-4.27154 9.07552,-5.519337 5.3721,-4.050879 5.54489,-4.700144 10.67977,-9.550325 c 0,0 1.96853,-2.354288 2.66346,-3.708249 0.7355,-1.432951 1.14894,-3.017157 1.54538,-4.578311 0.47851,-1.884349 0.87085,-3.806522 0.99739,-5.74656 0.0808,-1.239099 0.0978,-2.506216 -0.15463,-3.721966 -0.35115,-1.689931 -1.02316,-3.323524 -1.86368,-4.831044 -0.91889,-1.647995 -2.12344,-3.140088 -3.42156,-4.509402 -0.95281,-1.005006 -2.01179,-1.926666 -3.1711,-2.684153 -0.91061,-0.594967 -1.92217,-1.027814 -2.9311,-1.434267 -1.44379,-0.581639 -4.44587,-1.428334 -4.44587,-1.428334 L 198.62243,38.335855 155.52966,25.134817 136.5738,18.992127 114.6972,11.436082 97.703239,4.6586451 81.209238,-2.9111505 52.546334,-16.263717 27.13516,-28.577554 -4.8304889,-44.08135 -31.462663,-57.240611 l -17.542041,-8.195694 -16.655547,-6.745216 -15.535153,-5.521697 -13.910788,-4.453266 -18.372138,-5.293315 -19.59567,-4.172919 -16.31866,-3.011788 -20.9956,-3.041626 -11.43874,-1.497952 c 0,0 -4.85751,-0.683169 -7.15435,-0.04138 -1.33928,0.374222 -2.49629,1.281435 -3.55494,2.183093 -0.68505,0.583459 -1.28516,1.282366 -1.76076,2.046248 -0.55217,0.886863 -0.94996,1.876245 -1.22975,2.882795 -0.37179,1.338167 -0.71987,2.744919 -0.57741,4.126372 0.18848,1.82496 1.86066,5.179958 1.86066,5.179958 l 8.75295,13.838736 8.4799,14.865003 11.75927,20.364613 10.44761,18.33831 11.3807,19.3963145 7.3565,14.7395955 7.64189,16.492843 6.05369,15.723243 5.70577,18.117667 3.95853,16.206847 2.47345,13.093275 4.64652,29.924001 5.21636,31.69503 6.178187,32.64504 4.958422,20.92641 4.967894,18.49975 6.91777,22.25747 5.423376,15.26631 7.042214,19.39872 10.405312,26.54003 8.155663,21.08307 8.042191,20.96612 3.878124,10.74867 2.701739,9.19213 1.901953,8.28528 1.491399,8.08927 c 0,0 0.543663,2.99858 1.147331,4.38286 0.384752,0.8823 1.549507,2.43661 1.549507,2.43661 0,0 1.396123,1.18341 2.21331,1.57221 0.799198,0.38016 2.558534,0.70943 2.558534,0.70943 l 7.069182,-0.37474 10.7361962,-0.3533 16.9183398,0.10596 17.469136,-0.008 31.535203,-0.0874 27.228009,-0.11678 70.450158,0.95223 43.363,-0.3766 z" fill="none" stroke="#E63B19" stroke-width="8" stroke-linecap="round" stroke-linejoin="round"/>
  </g>
</svg>
