<?xml version="1.0" encoding="UTF-8"?>
<svg xmlns="http://www.w3.org/2000/svg" viewBox="0 0 793.701 349.167">
  <path d="M248.611,253.905c0.019,0.249,0.004,0.436-0.045,0.559c-0.048,0.125-0.113,0.189-0.196,0.196l-0.818,0.062
					c0.124,0.116,0.216,0.251,0.277,0.406c0.062,0.154,0.099,0.318,0.111,0.488c0.03,0.406-0.01,0.77-0.121,1.095
					c-0.112,0.325-0.285,0.604-0.521,0.839c-0.236,0.233-0.528,0.42-0.875,0.559c-0.348,0.139-0.739,0.225-1.176,0.258
					c-0.224,0.016-0.438,0.005-0.645-0.035c-0.207-0.039-0.367-0.09-0.482-0.154c-0.057,0.072-0.106,0.156-0.149,0.254
					c-0.042,0.097-0.059,0.202-0.05,0.316c0.012,0.151,0.086,0.269,0.227,0.355c0.14,0.086,0.329,0.125,0.568,0.118l1.695-0.065
					c0.396-0.014,0.752,0.016,1.068,0.088c0.316,0.074,0.586,0.188,0.81,0.348c0.224,0.158,0.4,0.354,0.53,0.59
					c0.13,0.236,0.207,0.51,0.23,0.822c0.025,0.342-0.025,0.671-0.153,0.986c-0.128,0.314-0.334,0.596-0.618,0.841
					c-0.285,0.246-0.649,0.452-1.094,0.615c-0.445,0.165-0.971,0.269-1.579,0.314c-0.592,0.044-1.101,0.036-1.525-0.026
					c-0.426-0.062-0.778-0.166-1.058-0.312c-0.28-0.146-0.49-0.33-0.629-0.551c-0.14-0.223-0.22-0.471-0.24-0.746
					c-0.013-0.172-0.004-0.337,0.029-0.496c0.032-0.158,0.086-0.312,0.161-0.463c0.074-0.149,0.17-0.294,0.284-0.432
					c0.115-0.14,0.249-0.275,0.401-0.406c-0.233-0.104-0.418-0.252-0.555-0.449c-0.139-0.195-0.216-0.416-0.234-0.66
					c-0.022-0.307,0.026-0.59,0.147-0.852c0.121-0.264,0.286-0.504,0.494-0.723c-0.196-0.17-0.357-0.377-0.485-0.623
					c-0.129-0.246-0.207-0.559-0.235-0.938c-0.03-0.406,0.014-0.773,0.133-1.104s0.297-0.615,0.535-0.854
					c0.237-0.241,0.528-0.432,0.873-0.575c0.345-0.145,0.729-0.23,1.155-0.263c0.219-0.017,0.429-0.02,0.63-0.009
					c0.202,0.012,0.391,0.033,0.565,0.066l2.205-0.165c0.088-0.007,0.164,0.046,0.227,0.155
					C248.549,253.444,248.591,253.636,248.611,253.905z M246.218,255.738c-0.028-0.374-0.153-0.657-0.377-0.849
					c-0.224-0.192-0.524-0.273-0.903-0.246c-0.192,0.016-0.359,0.061-0.499,0.135c-0.141,0.077-0.255,0.174-0.343,0.293
					s-0.149,0.254-0.186,0.406c-0.035,0.15-0.047,0.309-0.034,0.469c0.026,0.354,0.15,0.623,0.374,0.814
					c0.223,0.189,0.519,0.27,0.888,0.242c0.197-0.016,0.366-0.059,0.508-0.133c0.14-0.073,0.255-0.167,0.343-0.283
					c0.087-0.117,0.15-0.248,0.189-0.395C246.216,256.045,246.229,255.895,246.218,255.738z M247.095,261.251
					c-0.018-0.234-0.124-0.406-0.321-0.517c-0.196-0.11-0.458-0.159-0.786-0.146l-1.397,0.066c-0.128,0.109-0.229,0.213-0.302,0.309
					c-0.074,0.097-0.132,0.189-0.175,0.275c-0.044,0.088-0.07,0.17-0.08,0.25c-0.01,0.078-0.011,0.16-0.005,0.243
					c0.02,0.26,0.166,0.446,0.438,0.562s0.647,0.155,1.125,0.119c0.296-0.021,0.543-0.07,0.741-0.146
					c0.198-0.073,0.355-0.166,0.474-0.273c0.117-0.107,0.196-0.225,0.239-0.352C247.089,261.517,247.105,261.386,247.095,261.251z" fill="none" stroke="#E63B19" stroke-width="8" stroke-linecap="round" stroke-linejoin="round"/>
</svg>
