<?xml version="1.0" encoding="UTF-8"?>
<svg xmlns="http://www.w3.org/2000/svg" viewBox="0 0 1415.7909 875.29749">

  <g transform="translate(2047.7528,-153.52072)">
  <path d="m -1785.7292,792.86845 c -67.4631,47.6329 -136.8716,92.50853 -206.8599,136.34679 -10.3037,6.45387 -19.757,14.98157 -31.3516,18.63984 -4.0422,1.27539 -8.9373,2.93985 -12.6804,0.95103 -3.0093,-1.59895 -4.7806,-5.48102 -5.0722,-8.87629 -0.8187,-9.53376 7.0404,-21.07515 9.7848,-26.98746 18.7684,-40.4325 32.5731,-75.25655 52.3492,-111.10243 9.7931,-17.75091 20.0392,-35.44966 32.7158,-51.27062 18.5455,-23.14555 41.9063,-41.98211 62.7681,-63.06379 18.9528,-19.15258 37.8814,-38.3297 56.6921,-57.62194 13.0861,-13.42106 27.8076,-25.46016 39.0764,-40.4396 8.1158,-10.78821 12.3066,-24.14858 20.1823,-35.11326 5.8625,-8.16174 12.0461,-16.40465 19.9717,-22.58261 9.2179,-7.18533 20.1804,-12.05474 31.1401,-16.11486 14.2066,-5.26299 30.2284,-4.67101 44.2326,-10.45118 10.9909,-4.53647 20.3412,-11.6625 30.0033,-18.28029 17.0568,-11.68259 32.7571,-25.23249 49.2299,-37.72517 17.089,-12.95998 34.0853,-26.04969 51.461,-38.62259 13.3104,-9.63129 26.6578,-19.23313 40.4294,-28.19266 6.3654,-4.14118 12.7691,-8.25985 19.4855,-11.80332 10.1861,-5.37397 20.7582,-10.02659 31.458,-14.28671 28.2031,-11.22903 57.5917,-19.23915 86.1103,-29.64094 108.264,-39.48786 293.1142,-113.21099 322.5788,-124.36324 22.6881,-8.58731 44.78584,-19.5641 68.54911,-24.44216 4.97826,-1.02192 10.25088,-2.03266 15.2165,-0.95103 7.05353,1.53641 13.18102,5.45684 18.70361,9.82732 5.62536,4.4518 8.98322,10.71891 13.72938,15.85051 2.44332,2.64173 4.34429,5.40993 7.1933,7.29124 3.90756,2.58031 8.23097,3.99314 12.68041,4.75515 4.08707,0.69995 8.12389,0.25064 12.04639,-0.63402 13.47671,-3.03945 25.34866,-11.03439 38.31668,-15.79783 7.63492,-2.80447 15.21107,-6.06974 23.21569,-7.51304 6.25256,-1.12739 12.84477,-2.2351 19.04187,-0.83459 6.48144,1.46478 13.05132,4.55432 17.60471,9.35229 32.57422,34.32396 68.02275,76.28376 101.41094,114.96938 9.19604,10.6551 18.7466,21.03913 27.24162,32.26111 3.34682,4.42117 7.13555,8.68262 9.31992,13.77932 2.71702,6.33951 5.09616,13.35105 4.41688,20.21473 -0.54526,5.50943 -3.39367,10.7443 -6.65721,15.21649 -2.79802,3.83426 -6.5476,7.08539 -10.68316,9.41512 -4.23868,2.38782 -9.10345,3.73203 -13.92719,4.36421 -4.1389,0.54243 -8.47818,0.53765 -12.51128,-0.53882 -4.98042,-1.32932 -9.6397,-3.98067 -13.72664,-7.12211 -5.88512,-4.52362 -10.20033,-10.79654 -14.99469,-16.46328 -16.80602,-19.86403 -36.46855,-48.67955 -48.20682,-61.39464 -3.8937,-4.21773 -10.70563,-5.85072 -16.61115,-6.84762 -5.53122,-0.93371 -11.35495,-0.39092 -16.80155,0.95103 -10.48889,2.5843 -19.56952,9.16499 -29.50322,13.40964 -13.86635,5.92507 -27.95673,11.31293 -41.99323,16.8228 -15.83221,6.21476 -31.52489,12.83056 -47.62548,18.31266 -17.53362,5.97003 -35.38844,10.97628 -53.25773,15.85052 -33.16096,9.04537 -66.94416,15.70668 -100.08016,24.84326 -9.7944,2.7006 -19.8704,4.75196 -29.1649,8.85502 -7.09,3.1299 -13.9835,6.97978 -19.9818,11.88742 -5.0761,4.15307 -10.0042,8.8603 -13.2091,14.58247 -3.9907,7.1253 -5.5085,15.46241 -6.8902,23.51144 -1.2485,7.27362 -1.1231,14.7272 -1.2153,22.10663 -0.1087,8.70699 -0.2727,17.46774 0.7819,26.11131 1.2962,10.62416 3.285,21.26913 6.7839,31.38402 2.9508,8.53052 6.5939,17.01203 11.856,24.34601 3.5182,4.90342 8.2055,8.90703 12.881,12.72293 5.0928,4.15653 10.7589,7.57577 16.3893,10.96875 6.4793,3.90454 12.9479,7.96882 19.9717,10.77835 25.8772,10.35099 53.8898,14.26513 80.6685,21.99016 35.77334,10.31979 71.46774,20.95401 106.85272,32.53561 12.4506,4.07512 25.52589,6.84189 37.09021,12.99742 5.21868,2.77783 10.22039,6.24897 14.21279,10.60922 4.11526,4.49441 7.66833,9.777 9.60551,15.55476 2.00865,5.99092 2.42127,12.58714 1.77544,18.87274 -0.67802,6.59896 -3.13674,12.75078 -5.07216,19.02062 -3.29403,10.67111 -9.37446,20.57461 -11.11663,31.60584 -1.03499,6.55341 -0.95688,13.42418 0.49631,19.89771 1.54396,6.87791 4.43578,13.62044 8.55928,19.33763 1.83785,2.54817 4.42632,4.50198 6.97423,6.3402 16.6768,12.03165 35.0667,21.8406 53.77624,30.23245 25.09454,11.25573 53.03505,21.48818 74.86617,39.31943 5.17668,4.22822 9.8166,9.4941 12.68041,15.5335 2.49507,5.26178 3.93096,11.31213 3.48711,17.11856 -0.56373,7.37471 -3.87614,14.4746 -7.68218,20.81638 -14.20248,23.66475 -26.91889,43.25151 -43.85278,64.13123 -4.81571,5.9378 -10.91827,10.9691 -17.56218,14.7515 -5.85985,3.3361 -12.17858,5.5609 -18.70361,6.6785 -9.41546,1.6128 -18.9175,1.0666 -28.26659,-0.1054 -18.01915,-2.2588 -35.62573,-7.4797 -52.84459,-13.2506 -15.93641,-5.3411 -31.73219,-11.51717 -46.42122,-19.68592 -19.40702,-10.79248 -37.19441,-24.40485 -54.45184,-38.37952 -17.36931,-14.06527 -34.20019,-28.98774 -49.17914,-45.57554 -19.6266,-21.73462 -35.9563,-46.2591 -52.8558,-70.17575 -13.6581,-19.32944 -24.7379,-40.46589 -39.1928,-59.20698 -11.0578,-14.33677 -22.0725,-29.16913 -36.1918,-40.50338 -12.721,-10.21177 -28.0794,-16.66964 -42.6799,-23.94491 -15.2914,-7.61955 -30.8067,-14.95927 -46.9387,-20.58441 -26.3057,-9.17263 -53.357,-16.60149 -80.8164,-21.30347 -10.84,-1.85618 -21.9417,-3.78639 -32.8841,-2.68396 -10.9469,1.10289 -21.5093,5.04819 -31.701,9.1933 -17.1354,6.96924 -32.5314,17.62488 -48.9573,26.13257 -22.7858,11.80168 -44.9891,24.96619 -68.7912,34.55412 -11.7934,4.7506 -24.1638,7.95816 -36.4349,11.28575 -12.5672,3.40788 -25.3224,6.0876 -38.0413,8.87629 -41.2206,9.03784 -107.092,25.43683 -124.0139,25.45509 -3.4028,0.004 -8.8068,-3.63976 -10.7571,-7.56574 -1.3172,-2.65149 0.1623,-5.91969 0.317,-8.87629 0.321,-6.13503 2.8721,-12.45628 1.2681,-18.3866 -0.8341,-3.08385 -2.7788,-6.08362 -5.3892,-7.92525 -2.0524,-1.44794 -4.7881,-2.10965 -7.2912,-1.90207 -4.384,0.36355 -8.517,2.7635 -12.0464,5.38918 -24.1227,17.94583 -43.815,34.20182 -66.5093,50.22534 z" fill="none" stroke="#E63B19" stroke-width="10" stroke-linecap="round" stroke-linejoin="round"/>
  <path d="m -1995.3734,838.52848 c 8.3709,-14.42819 27.9422,-36.19108 38.3178,-55.49486 16.3498,-30.41845 41.9907,-53.84286 68.4159,-77.79863 26.7621,-24.26119 51.4095,-50.7578 77.0168,-76.23484 8.3614,-8.31891 17.2087,-16.18364 25.0206,-25.02066 15.0055,-16.9747 27.7607,-36.67424 41.8019,-53.5944 8.2685,-9.96389 18.834,-18.44364 30.103,-25.02066 6.02,-3.51356 12.7875,-5.72767 19.5474,-7.42801 11.7253,-2.94937 24.5111,-0.82592 35.9672,-4.69138 7.6883,-2.59417 14.0433,-7.71006 20.7202,-12.11938 19.9004,-13.14194 39.7022,-26.70529 57.4693,-42.61332 19.3773,-17.34972 28.5174,-36.72445 50.6451,-53.14425" fill="none" stroke="#E63B19" stroke-width="10" stroke-linecap="round" stroke-linejoin="round"/>
  </g>
</svg>