<?xml version="1.0" encoding="UTF-8"?>
<svg xmlns="http://www.w3.org/2000/svg" viewBox="0 0 577.29 481.89">
  <path d="M 205.25 44.99 C 208.69 36.47 223.02 33.88 229.82 36.38 C 237.56 39.23 243.80 50.70 241.84 58.71 C 240.12 65.74 227.10 94.97 222.31 106.54 C 206.33 145.12 220.66 161.60 207.72 178.74 C 203.07 184.90 179.61 190.16 163.88 196.03 C 156.56 198.76 149.99 207.83 153.13 216.97 C 158.01 231.19 172.42 228.65 179.83 226.29 C 215.76 214.89 232.63 207.33 250.64 206.27 C 277.15 204.72 291.19 211.59 319.33 217.39 C 338.15 221.28 358.02 216.15 370.95 207.11 C 372.60 205.96 392.22 193.36 397.57 190.84 C 406.53 186.63 418.72 182.06 430.81 182.45 C 449.84 183.07 466.07 183.64 484.26 184.54 C 495.05 185.08 512.83 188.12 524.14 204.45 C 532.47 216.47 539.15 236.78 526.24 256.97 C 509.65 282.92 501.77 286.16 476.64 337.96 C 471.00 349.58 455.52 352.40 426.30 345.17 C 407.60 340.54 380.08 323.06 380.34 309.79 C 379.94 308.59 380.56 297.65 402.22 289.74 C 410.73 286.63 427.59 287.43 452.43 277.41 C 470.75 270.03 472.23 258.51 470.69 250.42 C 468.06 236.59 457.15 232.63 439.28 230.94 C 414.33 228.58 404.77 228.37 380.50 230.28 C 307.93 235.98 261.78 258.64 227.06 277.03 C 220.85 280.33 218.71 274.72 215.20 268.62 C 209.50 258.74 203.26 256.73 194.71 259.41 C 185.81 262.20 182.46 269.16 184.64 282.69 C 190.95 321.81 195.48 344.88 201.65 376.75 C 207.82 408.57 189.99 417.15 177.28 417.79 C 123.09 420.51 111.84 413.13 94.08 393.13 C 82.93 380.57 76.46 358.58 89.80 326.14 C 128.61 231.78 158.63 159.62 196.60 65.30 Z M 201.87 59.51 " fill="none" stroke="#E63B19" stroke-width="8" stroke-linecap="round" stroke-linejoin="round"/>
</svg>
